<svg width="64" height="64" viewBox="0 0 64 64" fill="none" xmlns="http://www.w3.org/2000/svg">
<path d="M32 5.5C26.9526 5.49717 22.0095 6.93641 17.7525 9.64829C13.4955 12.3602 10.1019 16.2318 7.97119 20.8074C5.84047 25.383 5.06131 30.4721 5.72545 35.4756C6.38959 40.4791 8.46938 45.1887 11.72 49.05V49.05C11.98 49.37 12.25 49.67 12.56 50.05C12.6479 50.1357 12.7313 50.2258 12.81 50.32C12.96 50.48 13.12 50.63 13.27 50.78L13.45 50.96L13.7 51.2C14.02 51.51 14.34 51.8 14.65 52.05C14.96 52.3 15.38 52.68 15.73 52.94C16.08 53.2 16.37 53.43 16.73 53.66L17.01 53.85C17.22 54 17.44 54.15 17.62 54.26L18.23 54.64H18.29C19.04 55.09 19.76 55.48 20.49 55.84H20.6C20.92 56 21.25 56.14 21.6 56.27C22.8383 56.8 24.1154 57.2346 25.42 57.57C25.81 57.67 26.2 57.76 26.6 57.84C27 57.92 27.36 58 27.71 58.05L28.18 58.12C28.46 58.17 28.76 58.2 29.04 58.23L29.56 58.29C29.86 58.29 30.18 58.29 30.5 58.35H30.76C31.18 58.35 31.6 58.35 32.02 58.35C32.44 58.35 32.86 58.35 33.28 58.35H33.54C33.86 58.35 34.18 58.35 34.54 58.28L34.99 58.23C35.3 58.23 35.6 58.17 35.79 58.13L36.3 58.05C36.7 58.05 37.08 57.92 37.46 57.84L38.67 57.57C39.9562 57.2319 41.2162 56.8007 42.44 56.28C42.77 56.14 43.09 56 43.44 55.84L42.78 54.49L43.55 55.79C44.28 55.43 45 55.04 45.75 54.59L45.84 54.53L46.36 54.2C46.5772 54.0747 46.7875 53.9379 46.99 53.79L47.27 53.6C47.61 53.37 47.95 53.11 48.27 52.88C48.59 52.65 49.02 52.28 49.35 51.99C49.68 51.7 50.02 51.42 50.28 51.16L50.58 50.87L50.38 50.67C50.7148 50.6162 51.0214 50.4505 51.25 50.2L51.51 49.92C51.78 49.63 52.05 49.33 52.31 49.01C55.5499 45.1459 57.6196 40.4374 58.2759 35.4376C58.9322 30.4379 58.1478 25.3547 56.0149 20.7853C53.882 16.216 50.4892 12.3504 46.2351 9.64273C41.9811 6.93507 37.0426 5.49786 32 5.5V5.5ZM50 47.12V47.17C49.76 47.45 49.53 47.72 49.32 47.94L48.99 48.29C48.7965 48.5066 48.6682 48.7736 48.62 49.06L48.42 48.86L48.21 49.06C47.95 49.31 47.69 49.55 47.39 49.8C47.09 50.05 46.76 50.33 46.39 50.6C46.02 50.87 45.83 51.03 45.5 51.27L45.29 51.4C45.13 51.52 44.96 51.63 44.73 51.77L44.26 52.07H44.2C43.53 52.48 42.89 52.84 42.31 53.07C42.241 53.0946 42.1741 53.1247 42.11 53.16C41.84 53.29 41.58 53.41 41.28 53.53C40.1953 53.9919 39.0791 54.3762 37.94 54.68L36.82 55C36.49 55.07 36.17 55.14 35.82 55.19C35.7 55.19 35.58 55.24 35.36 55.26C35.14 55.28 34.92 55.32 34.67 55.35H34.24C33.97 55.35 33.7 55.4 33.42 55.41H33.1C32.3642 55.46 31.6258 55.46 30.89 55.41H30.62C30.34 55.41 30.07 55.41 29.84 55.35H29.35L28.59 55.25L28.17 55.19C27.83 55.19 27.51 55.07 27.17 55C26.83 54.93 26.44 54.84 26.11 54.76C24.9524 54.4591 23.8192 54.0713 22.72 53.6C22.45 53.49 22.18 53.37 21.94 53.25L21.79 53.18C21.1037 52.8576 20.436 52.4971 19.79 52.1H19.73L19.2 51.77C19.03 51.66 18.86 51.55 18.7 51.43L18.59 51.37C18.5436 51.3215 18.4896 51.2809 18.43 51.25C18.15 51.05 17.87 50.85 17.56 50.61C17.25 50.37 16.92 50.1 16.56 49.8C16.2 49.5 16.02 49.33 15.72 49.04L15.55 48.88L15.35 48.68L15 48.27L14.77 48C14.52 47.74 14.29 47.47 14.05 47.19V47.14C11.1739 43.7134 9.33571 39.5371 8.75134 35.1018C8.16696 30.6665 8.86072 26.1566 10.7511 22.102C12.6414 18.0474 15.6498 14.6166 19.4228 12.2128C23.1957 9.80899 27.5764 8.53206 32.05 8.53206C36.5236 8.53206 40.9043 9.80899 44.6772 12.2128C48.4501 14.6166 51.4585 18.0474 53.3489 22.102C55.2392 26.1566 55.933 30.6665 55.3486 35.1018C54.7643 39.5371 52.926 43.7134 50.05 47.14L50 47.12Z" fill="#ffffff" id="id_101"></path>
<path d="M47.1798 30.5003H33.4998V16.8203C33.4998 16.4225 33.3418 16.041 33.0605 15.7597C32.7792 15.4783 32.3976 15.3203 31.9998 15.3203C31.602 15.3203 31.2205 15.4783 30.9392 15.7597C30.6579 16.041 30.4998 16.4225 30.4998 16.8203V30.5003H16.8198C16.422 30.5003 16.0405 30.6583 15.7592 30.9397C15.4779 31.221 15.3198 31.6025 15.3198 32.0003C15.3198 32.3981 15.4779 32.7797 15.7592 33.061C16.0405 33.3423 16.422 33.5003 16.8198 33.5003H30.4998V47.1803C30.4998 47.5781 30.6579 47.9597 30.9392 48.241C31.2205 48.5223 31.602 48.6803 31.9998 48.6803C32.3976 48.6803 32.7792 48.5223 33.0605 48.241C33.3418 47.9597 33.4998 47.5781 33.4998 47.1803V33.5003H47.1798C47.5776 33.5003 47.9592 33.3423 48.2405 33.061C48.5218 32.7797 48.6798 32.3981 48.6798 32.0003C48.6798 31.6025 48.5218 31.221 48.2405 30.9397C47.9592 30.6583 47.5776 30.5003 47.1798 30.5003Z" fill="#ffffff" id="id_102"></path>
</svg>